<svg xmlns="http://www.w3.org/2000/svg" version="1.1" xmlns:xlink="http://www.w3.org/1999/xlink" xmlns:svgjs="http://svgjs.dev/svgjs" width="1000" height="625" viewBox="0 0 1000 625"><g transform="matrix(1,0,0,1,0,0)"><svg viewBox="0 0 512 320" data-background-color="#ffffff" preserveAspectRatio="xMidYMid meet" height="625" width="1000" xmlns="http://www.w3.org/2000/svg" xmlns:xlink="http://www.w3.org/1999/xlink"><g id="tight-bounds" transform="matrix(1,0,0,1,0,0)"><svg viewBox="0 0 512 320" height="320" width="512"><g><svg></svg></g><g><svg viewBox="0 0 512 320" height="320" width="512"><g><path xmlns="http://www.w3.org/2000/svg" d="M96 160c0-88.366 71.634-160 160-160 88.366 0 160 71.634 160 160 0 88.366-71.634 160-160 160-88.366 0-160-71.634-160-160z" fill="#8b3c7f" fill-rule="nonzero" stroke="none" stroke-width="1" stroke-linecap="butt" stroke-linejoin="miter" stroke-miterlimit="10" stroke-dasharray="" stroke-dashoffset="0" font-family="none" font-weight="none" font-size="none" text-anchor="none" style="mix-blend-mode: normal" data-fill-palette-color="tertiary"></path></g><g transform="matrix(1,0,0,1,153.6,135.74395050025046)"><svg viewBox="0 0 204.8 48.51209899949908" height="48.51209899949908" width="204.8"><g><svg viewBox="0 0 352.96744735399125 83.6093347150259" height="48.51209899949908" width="204.8"><g><rect width="3.4641478124368916" height="83.6093347150259" x="135.63484977077718" y="0" fill="#8b3c7f" opacity="1" stroke-width="0" stroke="transparent" fill-opacity="1" class="rect-o-0" data-fill-palette-color="primary" rx="1%" id="o-0" data-palette-color="#8b3c7f"></rect></g><g transform="matrix(1,0,0,1,148.16744735399126,0.20798341968911416)"><svg viewBox="0 0 204.79999999999998 83.19336787564767" height="83.19336787564767" width="204.79999999999998"><g id="textblocktransform"><svg viewBox="0 0 204.79999999999998 83.19336787564767" height="83.19336787564767" width="204.79999999999998" id="textblock"><g><svg viewBox="0 0 204.79999999999998 83.19336787564767" height="83.19336787564767" width="204.79999999999998"><g transform="matrix(1,0,0,1,0,0)"><svg width="204.79999999999998" viewBox="2.0999996662139893 -35.5 192.99998474121094 75.35000610351562" height="83.19336787564767" data-palette-color="#ffffff"><svg></svg><svg></svg><g class="undefined-text-0" data-fill-palette-color="quaternary" id="text-0"><path xmlns="http://www.w3.org/2000/svg" d="M13.7 0.7c-3.833 0-6.723-0.667-8.67-2-1.953-1.333-2.93-3.067-2.93-5.2v0c0-1.033 0.283-1.857 0.85-2.47 0.567-0.62 1.467-0.93 2.7-0.93v0c0.2 0 0.6 0.033 1.2 0.1v0c-0.1 0.333-0.15 0.717-0.15 1.15v0c0 0.233 0.033 0.65 0.1 1.25v0c0.2 1.7 0.95 3.117 2.25 4.25 1.3 1.133 3.083 1.7 5.35 1.7v0c1.867 0 3.383-0.477 4.55-1.43 1.167-0.947 1.75-2.32 1.75-4.12v0c0-1.2-0.267-2.243-0.8-3.13-0.533-0.88-1.31-1.687-2.33-2.42-1.013-0.733-2.42-1.617-4.22-2.65v0c-2.4-1.333-4.273-2.51-5.62-3.53-1.353-1.013-2.42-2.17-3.2-3.47-0.787-1.3-1.18-2.85-1.18-4.65v0c0-2.9 1.06-5.06 3.18-6.48 2.113-1.413 4.82-2.12 8.12-2.12v0c3.133 0 5.643 0.523 7.53 1.57 1.88 1.053 2.82 2.53 2.82 4.43v0c0 1.733-0.933 2.65-2.8 2.75v0c-0.133 0.033-0.333 0.05-0.6 0.05v0c-0.267 0-0.633-0.033-1.1-0.1v0c0.033-0.167 0.05-0.383 0.05-0.65v0c0-0.767-0.117-1.4-0.35-1.9v0c-0.2-1.233-0.833-2.217-1.9-2.95-1.067-0.733-2.483-1.1-4.25-1.1v0c-1.5 0-2.79 0.36-3.87 1.08-1.087 0.713-1.63 1.887-1.63 3.52v0c0 1.667 0.577 3.083 1.73 4.25 1.147 1.167 3.187 2.55 6.12 4.15v0c2.033 1.133 3.727 2.2 5.08 3.2 1.347 1 2.453 2.19 3.32 3.57 0.867 1.387 1.3 2.98 1.3 4.78v0c0 1.733-0.44 3.317-1.32 4.75-0.887 1.433-2.263 2.583-4.13 3.45-1.867 0.867-4.183 1.3-6.95 1.3zM56.85-3.45c0.4 1.233 0.883 2.167 1.45 2.8v0c-0.767 0.833-1.85 1.25-3.25 1.25v0c-0.9 0-1.65-0.183-2.25-0.55-0.6-0.367-0.983-0.9-1.15-1.6v0l-2.55-9h-12.05l-2 7.2c-0.2 0.867-0.3 1.533-0.3 2v0c0 0.6 0.133 1.067 0.4 1.4v0c-0.967 0.367-1.967 0.55-3 0.55v0c-1.067 0-1.85-0.173-2.35-0.52-0.5-0.353-0.75-0.93-0.75-1.73v0c0-0.833 0.2-1.85 0.6-3.05v0l10.1-29.95c1.5-0.567 3.05-0.85 4.65-0.85v0c1.733 0 2.767 0.633 3.1 1.9v0zM37.9-13.65h10.3l-5.25-18.4zM96.65-6.55c0 2.5 0.283 4.483 0.85 5.95v0c-0.933 0.833-2 1.25-3.2 1.25v0c-0.9 0-1.623-0.26-2.17-0.78-0.553-0.513-0.83-1.22-0.83-2.12v0l-0.05-26.3-9.55 23.9c-1.133 0.4-2.15 0.6-3.05 0.6v0c-0.667 0-1.367-0.133-2.1-0.4v0c-3.5-6.933-6.983-14.967-10.45-24.1v0l0.05 22.05c0 2.733 0.267 4.883 0.8 6.45v0c-0.533 0.467-1.217 0.7-2.05 0.7v0c-1.267 0-1.9-0.767-1.9-2.3v0-26.65c0-2.867-0.117-4.967-0.35-6.3v0c0.567-0.5 1.833-0.75 3.8-0.75v0c0.667 0 1.227 0.083 1.68 0.25 0.447 0.167 0.853 0.433 1.22 0.8v0c4.033 9.633 7.55 17.983 10.55 25.05v0c2.567-6.433 5.85-14.95 9.85-25.55v0c0.967-0.367 2.117-0.55 3.45-0.55v0c0.833 0 1.59 0.133 2.27 0.4 0.687 0.267 1.08 0.583 1.18 0.95v0zM117.6 0.65c-4.533 0-7.967-1.51-10.3-4.53-2.333-3.013-3.5-7.52-3.5-13.52v0c0-6 1.167-10.51 3.5-13.53 2.333-3.013 5.767-4.52 10.3-4.52v0c4.533 0 7.977 1.507 10.33 4.52 2.347 3.02 3.52 7.53 3.52 13.53v0c0 6-1.173 10.507-3.52 13.52-2.353 3.02-5.797 4.53-10.33 4.53zM117.6-1.45c2.633 0 4.583-1.277 5.85-3.83 1.267-2.547 1.9-6.587 1.9-12.12v0c0-5.5-0.633-9.533-1.9-12.1-1.267-2.567-3.217-3.85-5.85-3.85v0c-2.6 0-4.533 1.283-5.8 3.85-1.267 2.567-1.9 6.6-1.9 12.1v0c0 5.5 0.633 9.533 1.9 12.1 1.267 2.567 3.2 3.85 5.8 3.85zM163.8-4.2c0.267 0.567 0.4 1.1 0.4 1.6v0c0 1.033-0.39 1.823-1.17 2.37-0.787 0.553-1.597 0.83-2.43 0.83v0c-1.133 0-2.057-0.243-2.77-0.73-0.72-0.48-1.33-1.147-1.83-2-0.5-0.847-1.05-2.037-1.65-3.57v0l-1.85-4.8c-0.433-1.1-0.84-1.967-1.22-2.6-0.387-0.633-0.937-1.167-1.65-1.6-0.72-0.433-1.68-0.65-2.88-0.65v0l-2.6-0.05v9.15c0 2.433 0.267 4.317 0.8 5.65v0c-0.933 0.833-1.983 1.25-3.15 1.25v0c-0.967 0-1.74-0.26-2.32-0.78-0.587-0.513-0.88-1.22-0.88-2.12v0-25.95c0-0.9-0.067-1.91-0.2-3.03-0.133-1.113-0.35-2.087-0.65-2.92v0c1.833-0.867 4.65-1.3 8.45-1.3v0c4.833 0 8.443 0.727 10.83 2.18 2.38 1.447 3.57 3.803 3.57 7.07v0c0 2.433-0.7 4.483-2.1 6.15-1.4 1.667-3.317 2.817-5.75 3.45v0c1.167 0.3 2.117 0.823 2.85 1.57 0.733 0.753 1.417 1.747 2.05 2.98v0l2.25 5.25c0.433 1.1 0.86 1.893 1.28 2.38 0.413 0.48 0.853 0.737 1.32 0.77v0c0.533 0 0.967-0.183 1.3-0.55zM144.15-17.5c0.567 0.033 1.517 0.05 2.85 0.05v0c2.333-0.067 4.177-0.867 5.53-2.4 1.347-1.533 2.02-3.517 2.02-5.95v0c0-5.033-2.65-7.55-7.95-7.55v0c-1.233 0-2.05 0.017-2.45 0.05v0zM193.65-3.45c0.4 1.233 0.883 2.167 1.45 2.8v0c-0.767 0.833-1.85 1.25-3.25 1.25v0c-0.9 0-1.65-0.183-2.25-0.55-0.6-0.367-0.983-0.9-1.15-1.6v0l-2.55-9h-12.05l-2 7.2c-0.2 0.867-0.3 1.533-0.3 2v0c0 0.6 0.133 1.067 0.4 1.4v0c-0.967 0.367-1.967 0.55-3 0.55v0c-1.067 0-1.85-0.173-2.35-0.52-0.5-0.353-0.75-0.93-0.75-1.73v0c0-0.833 0.2-1.85 0.6-3.05v0l10.1-29.95c1.5-0.567 3.05-0.85 4.65-0.85v0c1.733 0 2.767 0.633 3.1 1.9v0zM174.7-13.65h10.3l-5.25-18.4z" fill="#ffffff" fill-rule="nonzero" stroke="none" stroke-width="1" stroke-linecap="butt" stroke-linejoin="miter" stroke-miterlimit="10" stroke-dasharray="" stroke-dashoffset="0" font-family="none" font-weight="none" font-size="none" text-anchor="none" style="mix-blend-mode: normal" data-fill-palette-color="quaternary" opacity="1"></path><path xmlns="http://www.w3.org/2000/svg" d="M16.35 39.85c-4.333 0-7.7-1.567-10.1-4.7-2.4-3.133-3.6-7.583-3.6-13.35v0c0-5.733 1.243-10.177 3.73-13.33 2.48-3.147 5.937-4.72 10.37-4.72v0c1.8 0 3.517 0.233 5.15 0.7 1.633 0.467 2.96 1.117 3.98 1.95 1.013 0.833 1.52 1.8 1.52 2.9v0c0 0.9-0.4 1.657-1.2 2.27-0.8 0.62-1.883 0.913-3.25 0.88v0c-0.533-4.4-2.583-6.6-6.15-6.6v0c-5.367 0-8.05 5.317-8.05 15.95v0c0 10.633 2.633 15.95 7.9 15.95v0c1.833 0 3.367-0.627 4.6-1.88 1.233-1.247 2.05-3.087 2.45-5.52v0c0.167-0.033 0.45-0.05 0.85-0.05v0c1.033 0 1.917 0.24 2.65 0.72 0.733 0.487 1.1 1.197 1.1 2.13v0c0 1.3-0.567 2.467-1.7 3.5-1.133 1.033-2.617 1.823-4.45 2.37-1.833 0.553-3.767 0.83-5.8 0.83zM60.5 32.65c0 2.6 0.267 4.583 0.8 5.95v0c-0.933 0.833-2 1.25-3.2 1.25v0c-0.933 0-1.69-0.26-2.27-0.78-0.587-0.513-0.88-1.22-0.88-2.12v0l-0.05-14.45h-14.45v10.15c0 2.6 0.267 4.583 0.8 5.95v0c-0.933 0.833-2 1.25-3.2 1.25v0c-0.933 0-1.69-0.26-2.27-0.78-0.587-0.513-0.88-1.22-0.88-2.12v0l-0.05-25.95c0-2.533-0.267-4.517-0.8-5.95v0c0.333-0.3 0.777-0.577 1.33-0.83 0.547-0.247 1.17-0.37 1.87-0.37v0c0.933 0 1.7 0.257 2.3 0.77 0.6 0.52 0.9 1.23 0.9 2.13v0 12.65h14.45v-8.4c0-2.4-0.267-4.383-0.8-5.95v0c0.9-0.8 1.95-1.2 3.15-1.2v0c0.967 0 1.75 0.257 2.35 0.77 0.6 0.52 0.9 1.23 0.9 2.13v0zM94.35 6.75v17.15c0 5.3-1.067 9.283-3.2 11.95-2.133 2.667-5.317 4-9.55 4v0c-4.133 0-7.233-1.293-9.3-3.88-2.067-2.58-3.1-6.603-3.1-12.07v0-12.9c0-2.533-0.267-4.517-0.8-5.95v0c0.333-0.3 0.777-0.577 1.33-0.83 0.547-0.247 1.17-0.37 1.87-0.37v0c0.9 0 1.65 0.257 2.25 0.77 0.6 0.52 0.9 1.23 0.9 2.13v0 17.4c0 4.767 0.55 8.227 1.65 10.38 1.1 2.147 2.833 3.22 5.2 3.22v0c4.867 0 7.3-4.533 7.3-13.6v0-13.15c0-2.4-0.267-4.383-0.8-5.95v0c0.3-0.3 0.727-0.577 1.28-0.83 0.547-0.247 1.17-0.37 1.87-0.37v0c0.9 0 1.643 0.257 2.23 0.77 0.58 0.52 0.87 1.23 0.87 2.13zM136.35 32.65c0 2.5 0.283 4.483 0.85 5.95v0c-0.933 0.833-2 1.25-3.2 1.25v0c-0.9 0-1.623-0.26-2.17-0.78-0.553-0.513-0.83-1.22-0.83-2.12v0l-0.05-26.3-9.55 23.9c-1.133 0.4-2.15 0.6-3.05 0.6v0c-0.667 0-1.367-0.133-2.1-0.4v0c-3.5-6.933-6.983-14.967-10.45-24.1v0l0.05 22.05c0 2.733 0.267 4.883 0.8 6.45v0c-0.533 0.467-1.217 0.7-2.05 0.7v0c-1.267 0-1.9-0.767-1.9-2.3v0-26.65c0-2.867-0.117-4.967-0.35-6.3v0c0.567-0.5 1.833-0.75 3.8-0.75v0c0.667 0 1.227 0.083 1.68 0.25 0.447 0.167 0.853 0.433 1.22 0.8v0c4.033 9.633 7.55 17.983 10.55 25.05v0c2.567-6.433 5.85-14.95 9.85-25.55v0c0.967-0.367 2.117-0.55 3.45-0.55v0c0.833 0 1.593 0.133 2.28 0.4 0.68 0.267 1.07 0.583 1.17 0.95v0zM159.9 20.6c2.5 0.367 4.467 1.307 5.9 2.82 1.433 1.52 2.15 3.547 2.15 6.08v0c0 3.333-1.207 5.783-3.62 7.35-2.42 1.567-5.947 2.35-10.58 2.35v0h-5.2c-0.967 0-1.74-0.26-2.32-0.78-0.587-0.513-0.88-1.22-0.88-2.12v0-25.3c0-0.9-0.067-1.91-0.2-3.03-0.133-1.113-0.35-2.087-0.65-2.92v0c1.833-0.867 4.6-1.3 8.3-1.3v0c4.4 0 7.733 0.673 10 2.02 2.267 1.353 3.4 3.497 3.4 6.43v0c0 2.067-0.55 3.84-1.65 5.32-1.1 1.487-2.65 2.513-4.65 3.08zM152.75 5.85c-0.933 0-1.55 0.017-1.85 0.05v0 13.9h3.2c2 0.033 3.543-0.593 4.63-1.88 1.08-1.28 1.62-3.053 1.62-5.32v0c0-2.233-0.59-3.917-1.77-5.05-1.187-1.133-3.13-1.7-5.83-1.7zM153.7 37.05c5.467 0 8.2-2.483 8.2-7.45v0c0-2.9-0.7-4.91-2.1-6.03-1.4-1.113-3.417-1.67-6.05-1.67v0h-2.85v15.15zM178.05 39.85c-0.933 0-1.69-0.26-2.27-0.78-0.587-0.513-0.88-1.22-0.88-2.12v0l-0.05-25.95c0-2.533-0.267-4.517-0.8-5.95v0c0.333-0.3 0.777-0.577 1.33-0.83 0.547-0.247 1.17-0.37 1.87-0.37v0c0.933 0 1.7 0.257 2.3 0.77 0.6 0.52 0.9 1.23 0.9 2.13v0 25.9c0 2.6 0.267 4.583 0.8 5.95v0c-0.933 0.833-2 1.25-3.2 1.25z" fill="#ffffff" fill-rule="nonzero" stroke="none" stroke-width="1" stroke-linecap="butt" stroke-linejoin="miter" stroke-miterlimit="10" stroke-dasharray="" stroke-dashoffset="0" font-family="none" font-weight="none" font-size="none" text-anchor="none" style="mix-blend-mode: normal" data-fill-palette-color="quaternary" opacity="1"></path></g></svg></g></svg></g></svg></g></svg></g><g transform="matrix(1,0,0,1,0,15.225723357512951)"><svg viewBox="0 0 126.56639999999999 53.15788799999999" height="53.15788799999999" width="126.56639999999999"><g><svg xmlns="http://www.w3.org/2000/svg" xmlns:xlink="http://www.w3.org/1999/xlink" version="1.1" x="0" y="0" viewBox="0 33 100 42" enable-background="new 0 0 100 100" xml:space="preserve" height="53.15788799999999" width="126.56639999999999" class="icon-icon-0" data-fill-palette-color="quaternary" id="icon-0"><g fill="#ffffff" data-fill-palette-color="quaternary"><path d="M69 59H31c-2.761 0-5-2.238-5-5s2.239-5 5-5h38c2.761 0 5 2.238 5 5S71.761 59 69 59z" fill="#ffffff" data-fill-palette-color="quaternary"></path></g><g fill="#ffffff" data-fill-palette-color="quaternary"><path d="M92 33H60c-4.411 0-8 3.589-8 8v5h10v-3h28v22H62v-3H52v5c0 4.411 3.589 8 8 8h32c4.411 0 8-3.589 8-8V41C100 36.589 96.411 33 92 33z" fill="#ffffff" data-fill-palette-color="quaternary"></path><path d="M38 65H10V43h28v3h10v-5c0-4.411-3.589-8-8-8H8c-4.411 0-8 3.589-8 8v26c0 4.411 3.589 8 8 8h32c4.411 0 8-3.589 8-8v-5H38V65z" fill="#ffffff" data-fill-palette-color="quaternary"></path></g></svg></g></svg></g></svg></g></svg></g></svg></g><defs></defs></svg><rect width="512" height="320" fill="none" stroke="none" visibility="hidden"></rect></g></svg></g></svg>