<?xml version="1.0" standalone="no"?>
<!DOCTYPE svg PUBLIC "-//W3C//DTD SVG 20010904//EN"
 "http://www.w3.org/TR/2001/REC-SVG-20010904/DTD/svg10.dtd">
<svg version="1.0" xmlns="http://www.w3.org/2000/svg"
 width="1000.000000pt" height="625.000000pt" viewBox="0 0 1000.000000 625.000000"
 preserveAspectRatio="xMidYMid meet">

<g transform="translate(0.000000,625.000000) scale(0.100000,-0.100000)"
fill="#000000" stroke="none">
<path d="M4835 6243 c-941 -57 -1776 -503 -2335 -1248 -348 -463 -559 -1017
-611 -1606 -25 -280 0 -650 61 -934 251 -1153 1147 -2074 2295 -2359 634 -157
1304 -114 1899 123 982 392 1694 1235 1910 2259 52 246 60 338 60 647 0 310
-8 401 -60 649 -247 1170 -1148 2099 -2315 2385 -281 69 -627 101 -904 84z
m70 -2677 c42 -18 64 -58 45 -81 -21 -25 -48 -18 -55 15 -8 34 -31 50 -74 50
-48 0 -73 -38 -55 -85 4 -9 44 -41 90 -70 86 -56 114 -91 114 -143 0 -60 -69
-112 -147 -112 -93 0 -148 38 -141 97 2 22 9 29 31 31 23 3 27 0 27 -21 0 -62
95 -102 139 -58 44 44 20 94 -65 143 -104 58 -142 121 -112 185 26 56 127 80
203 49z m313 2 c5 -7 38 -102 72 -212 65 -210 66 -229 13 -210 -21 7 -29 20
-43 69 l-17 60 -70 3 -70 3 -12 -43 c-6 -24 -13 -54 -15 -68 -4 -31 -46 -40
-66 -14 -12 14 -6 41 49 206 35 104 70 196 78 204 18 17 67 18 81 2z m255 6
c8 -3 43 -73 78 -155 l63 -150 60 153 c59 148 62 153 92 156 17 2 36 -3 42
-11 7 -8 12 -81 12 -213 1 -171 -1 -200 -14 -209 -11 -7 -22 -6 -33 1 -16 10
-19 33 -23 170 l-5 158 -49 -124 c-27 -69 -53 -131 -59 -137 -5 -7 -22 -13
-37 -13 -24 0 -31 8 -64 80 -20 43 -45 103 -57 132 -11 29 -23 55 -26 58 -2 3
-3 -69 -2 -160 3 -157 2 -165 -17 -165 -18 0 -19 10 -22 205 -1 112 0 210 2
217 6 14 34 17 59 7z m684 -20 c44 -33 63 -66 74 -131 13 -75 -1 -174 -29
-212 -50 -68 -127 -87 -205 -53 -59 26 -88 80 -95 174 -8 115 24 198 90 232
43 22 129 17 165 -10z m381 -1 c71 -52 63 -148 -15 -191 -15 -9 -14 -13 8 -39
14 -17 33 -51 43 -76 13 -34 23 -47 38 -47 30 0 20 -42 -14 -54 -38 -13 -69
18 -99 96 -27 72 -41 88 -81 88 l-30 0 4 -90 c3 -88 2 -91 -20 -97 -46 -11
-50 7 -54 224 -4 234 -15 213 115 209 59 -2 84 -7 105 -23z m327 18 c3 -6 32
-94 64 -198 32 -103 62 -196 66 -205 5 -13 0 -19 -19 -24 -37 -9 -54 9 -73 78
l-17 59 -70 -3 -71 -3 -16 -65 c-15 -61 -18 -65 -45 -65 -23 0 -30 5 -32 23
-4 27 116 394 132 404 16 11 74 10 81 -1z m-3209 -183 c30 -33 34 -44 34 -93
l0 -55 -75 0 c-68 0 -75 2 -75 20 0 19 -7 20 -195 20 l-195 0 0 -155 0 -155
195 0 c188 0 195 1 195 20 0 18 7 20 75 20 l75 0 0 -55 c0 -49 -4 -60 -34 -93
l-34 -37 -261 -3 c-378 -4 -361 -19 -361 303 0 322 -18 306 358 303 l264 -3
34 -37z m722 22 c55 -34 62 -65 62 -285 0 -220 -7 -251 -62 -285 -31 -19 -50
-20 -288 -20 -238 0 -257 1 -288 20 -39 24 -62 73 -62 130 l0 40 75 0 c68 0
75 -2 75 -20 0 -19 7 -20 200 -20 l200 0 0 155 0 155 -200 0 c-193 0 -200 -1
-200 -20 0 -18 -7 -20 -75 -20 l-75 0 0 40 c0 57 23 106 62 130 31 19 50 20
288 20 238 0 257 -1 288 -20z m-344 -231 c19 -15 26 -30 26 -54 0 -24 -7 -39
-26 -54 -26 -20 -38 -21 -321 -21 l-294 0 -24 25 c-14 13 -25 36 -25 50 0 14
11 37 25 50 l24 25 294 0 c283 0 295 -1 321 -21z m914 -93 c38 -20 47 -44 26
-67 -25 -27 -38 -23 -57 16 -29 61 -99 58 -134 -7 -27 -51 -25 -230 3 -278 38
-66 111 -64 140 5 16 38 34 44 58 19 22 -22 20 -31 -12 -64 -49 -48 -160 -53
-216 -9 -47 37 -69 95 -69 185 -1 68 3 90 24 130 44 87 147 117 237 70z m180
12 c7 -7 12 -44 12 -95 l0 -83 86 0 85 0 -2 87 c-2 81 0 88 20 97 44 19 49 -2
53 -224 l3 -205 -23 -3 c-43 -6 -52 13 -52 114 l0 94 -86 0 -87 0 5 -100 c5
-100 5 -100 -19 -106 -48 -12 -52 4 -53 220 -1 156 1 201 12 207 18 12 32 11
46 -3z m416 -10 c13 -18 16 -53 16 -171 0 -113 4 -155 15 -177 31 -59 109 -47
132 20 8 22 12 91 12 184 -1 126 1 150 15 158 10 5 24 5 37 -2 20 -11 21 -18
17 -168 -3 -136 -6 -162 -23 -192 -56 -95 -208 -92 -259 5 -16 31 -20 64 -24
192 -4 125 -2 157 9 164 22 14 37 10 53 -13z m420 -1 c13 -19 82 -177 118
-267 8 -22 16 -9 67 124 62 161 77 180 126 158 l25 -12 0 -204 c0 -133 -4
-207 -11 -211 -5 -4 -21 -4 -34 -1 l-25 6 -2 163 -3 162 -55 -135 -55 -135
-35 0 -35 0 -52 120 c-29 66 -55 125 -57 130 -3 6 -5 -62 -4 -150 0 -149 -1
-160 -19 -160 -17 0 -18 14 -23 210 -3 134 -1 213 5 217 20 15 55 7 69 -15z
m599 14 c59 -14 87 -46 87 -99 0 -35 -6 -49 -29 -72 -25 -26 -27 -30 -11 -35
38 -12 63 -53 62 -101 0 -52 -19 -79 -69 -100 -42 -18 -177 -19 -191 -1 -7 8
-12 87 -13 207 l-1 195 23 6 c35 10 99 10 142 0z m251 -7 c14 -14 16 -44 14
-217 l-3 -202 -27 -3 c-22 -3 -30 2 -38 23 -15 40 -13 402 3 408 22 10 35 7
51 -9z"/>
<path d="M5139 3415 l-26 -95 60 0 c48 0 58 3 54 15 -4 8 -16 50 -28 95 -12
44 -25 80 -28 80 -4 0 -18 -43 -32 -95z"/>
<path d="M6021 3531 c-31 -31 -44 -97 -39 -196 5 -104 24 -151 65 -161 34 -9
74 13 91 49 35 73 23 259 -20 304 -27 28 -71 30 -97 4z"/>
<path d="M6390 3455 l0 -98 37 6 c49 8 74 36 80 88 7 59 -17 88 -75 96 l-42 6
0 -98z"/>
<path d="M6792 3440 c-13 -47 -25 -93 -28 -102 -5 -16 2 -18 51 -18 l57 0 -7
29 c-3 16 -16 62 -28 102 l-23 73 -22 -84z"/>
<path d="M6470 3001 l0 -81 39 0 c47 0 71 26 71 76 0 43 -27 73 -72 81 l-38 6
0 -82z"/>
<path d="M6470 2801 l0 -91 38 0 c21 0 47 7 59 15 28 20 39 76 23 115 -13 30
-20 34 -82 46 l-38 6 0 -91z"/>
</g>
</svg>
